<svg xmlns="http://www.w3.org/2000/svg" version="1.1" viewBox="265.77 82.66 283.29 291.94">
<path fill="#242b3a" d="   M 466.87 275.57   A 2.06 2.05 -44.9 0 0 466.86 277.87   Q 494.27 319.27 529.85 354.49   C 535.47 360.06 542.92 366.62 548.70 372.34   Q 548.92 372.57 548.97 372.69   A 1.27 1.26 75.6 0 1 547.96 374.41   Q 546.57 374.59 544.75 374.59   Q 477.43 374.63 475.01 374.56   C 472.51 374.50 470.68 373.09 468.93 370.98   Q 429.00 322.70 394.16 271.39   A 1.75 1.72 -62.9 0 1 393.87 270.46   Q 393.86 268.69 395.17 267.41   C 412.35 250.60 431.58 234.38 449.38 218.88   Q 454.02 214.85 460.21 207.96   Q 464.86 202.77 466.93 198.03   C 473.56 182.91 472.30 165.05 460.71 153.21   Q 454.08 146.44 446.26 143.77   Q 442.18 142.38 437.00 141.93   Q 432.06 141.50 427.49 141.52   Q 371.50 141.76 319.77 141.28   Q 315.26 141.24 312.29 139.89   Q 309.74 138.73 306.52 134.77   Q 274.14 94.98 266.01 84.92   A 1.08 1.07 58.4 0 1 266.40 83.26   Q 267.12 82.93 268.50 82.93   C 324.24 82.92 366.43 83.30 403.50 82.72   Q 421.94 82.44 440.90 83.57   Q 459.82 84.71 474.68 91.79   Q 504.38 105.94 519.69 135.05   C 535.26 164.65 532.66 201.55 516.62 229.89   C 505.47 249.60 488.74 263.58 468.02 274.54   Q 467.30 274.92 466.87 275.57   Z"/>
<path fill="#242b3a" d="   M 420.56 371.61   A 1.12 1.12 0.0 0 1 419.65 373.39   L 268.38 373.39   A 2.22 2.22 0.0 0 1 266.16 371.17   Q 266.07 294.89 266.12 198.50   Q 266.12 195.38 269.25 195.38   Q 386.53 195.30 399.50 195.43   Q 400.10 195.44 400.99 195.68   A 1.07 1.07 0.0 0 1 401.61 197.30   Q 400.83 198.50 399.66 199.66   Q 375.51 223.84 345.79 253.54   C 341.89 257.44 347.07 263.80 349.25 267.49   Q 372.22 306.29 399.80 343.73   C 402.25 347.06 409.37 356.31 420.56 371.61   Z"/>
</svg>