<svg xmlns="http://www.w3.org/2000/svg" version="1.1" viewBox="91.19 157.97 442.69 81.59">
<path fill="#232b3a" d="   M 170.07 238.83   A 0.42 0.42 0.0 0 1 169.79 239.56   L 149.47 239.56   A 1.75 1.73 -19.4 0 1 148.12 238.92   Q 137.13 225.69 127.05 210.86   A 0.97 0.96 -38.9 0 1 127.19 209.61   Q 132.52 204.58 140.47 197.72   Q 146.38 192.61 147.45 189.88   C 149.73 184.11 148.03 178.06 142.25 175.30   Q 140.31 174.37 135.63 174.40   Q 120.60 174.49 105.78 174.36   A 3.67 3.66 -19.2 0 1 102.95 173.00   L 91.28 158.64   A 0.37 0.37 0.0 0 1 91.57 158.03   Q 124.00 158.05 131.42 157.98   Q 141.74 157.87 145.97 159.16   C 156.20 162.27 163.95 171.53 164.80 182.27   C 165.82 195.24 158.93 205.99 147.60 211.56   A 0.72 0.72 0.0 0 0 147.32 212.60   Q 156.93 227.18 170.07 238.83   Z"/>
<rect fill="#141a25" x="-4.07" y="-26.64" transform="translate(383.20,201.47) rotate(0.1)" width="8.14" height="53.28" rx="0.55"/>
<path fill="#141a25" d="   M 246.75 228.12   L 238.34 228.12   A 1.49 1.49 0.0 0 1 237.09 227.44   L 226.02 209.87   A 1.16 1.14 73.7 0 0 225.05 209.33   L 214.31 209.33   A 0.74 0.74 0.0 0 0 213.57 210.07   L 213.57 227.64   A 0.48 0.48 0.0 0 1 213.09 228.12   L 205.29 228.12   A 0.43 0.43 0.0 0 1 204.86 227.69   L 204.86 175.83   A 0.52 0.51 90.0 0 1 205.37 175.31   Q 220.21 175.09 229.49 175.36   C 248.80 175.91 253.19 200.72 235.89 208.12   A 0.65 0.65 0.0 0 0 235.59 209.06   L 247.15 227.40   A 0.47 0.47 0.0 0 1 246.75 228.12   Z   M 213.61 183.98   L 213.53 200.60   A 0.91 0.91 0.0 0 0 214.43 201.51   L 228.50 201.58   A 9.24 9.18 0.3 0 0 237.79 192.45   L 237.79 192.37   A 9.24 9.18 0.3 0 0 228.60 183.15   L 214.53 183.07   A 0.91 0.91 0.0 0 0 213.61 183.98   Z"/>
<path fill="#141a25" d="   M 460.72 228.28   C 453.88 229.51 446.06 228.11 443.20 221.06   Q 442.26 218.76 442.26 213.95   Q 442.25 203.48 442.24 197.99   A 0.62 0.61 0.0 0 0 441.62 197.38   L 437.52 197.38   A 1.02 1.02 0.0 0 1 436.50 196.36   L 436.50 191.35   A 1.04 1.04 0.0 0 1 437.54 190.31   L 441.17 190.31   A 1.08 1.08 0.0 0 0 442.25 189.23   L 442.25 184.33   A 2.56 2.55 74.1 0 1 443.45 182.16   L 449.55 178.32   A 0.59 0.58 -16.3 0 1 450.45 178.81   L 450.45 189.62   A 0.73 0.73 0.0 0 0 451.18 190.35   L 461.28 190.35   A 0.72 0.72 0.0 0 1 462.00 191.07   L 462.00 196.70   A 0.69 0.68 90.0 0 1 461.32 197.39   L 451.16 197.39   A 0.74 0.73 -0.4 0 0 450.42 198.13   Q 450.45 204.29 450.42 212.74   Q 450.40 217.00 451.40 218.55   C 453.22 221.37 457.66 221.63 460.62 220.85   A 1.23 1.23 0.0 0 1 462.16 222.04   L 462.16 226.56   A 1.75 1.74 85.1 0 1 460.72 228.28   Z"/>
<path fill="#141a25" d="   M 259.53 211.91   A 0.44 0.44 0.0 0 0 259.10 212.46   Q 261.44 221.27 270.46 221.74   Q 277.11 222.08 280.93 216.73   A 1.33 1.33 0.0 0 1 282.45 216.25   L 287.82 218.14   A 0.97 0.97 0.0 0 1 288.35 219.52   Q 284.05 227.26 275.02 228.78   C 262.82 230.83 251.38 223.58 250.59 210.53   C 248.92 182.58 292.60 181.82 289.91 211.29   A 0.69 0.68 -87.2 0 1 289.23 211.91   L 259.53 211.91   Z   M 259.51 205.54   L 281.49 205.54   A 0.01 0.01 0.0 0 0 281.50 205.53   L 281.50 205.46   A 10.91 8.86 -0.0 0 0 270.59 196.60   L 270.41 196.60   A 10.91 8.86 0.0 0 0 259.50 205.46   L 259.50 205.53   A 0.01 0.01 0.0 0 0 259.51 205.54   Z"/>
<path fill="#141a25" d="   M 319.66 201.35   A 0.80 0.80 0.0 0 1 318.68 200.88   C 316.62 195.68 309.80 195.18 305.62 197.30   Q 303.54 198.36 303.32 200.57   C 303.08 203.04 306.39 204.57 308.19 204.86   Q 316.90 206.27 321.01 207.83   A 5.26 5.06 70.9 0 1 322.09 208.38   Q 329.43 213.29 326.09 221.61   C 322.98 229.35 311.26 230.07 304.31 228.19   Q 297.38 226.31 294.33 219.42   A 1.08 1.08 0.0 0 1 294.99 217.96   L 300.60 216.20   A 1.07 1.07 0.0 0 1 301.95 216.92   C 303.70 222.88 312.65 223.32 317.08 220.85   C 319.74 219.36 319.65 215.50 316.79 214.17   Q 315.13 213.39 313.58 213.15   C 305.34 211.83 293.81 210.41 295.43 199.38   C 296.61 191.34 305.44 188.98 312.73 189.43   C 317.93 189.75 324.68 193.05 325.95 198.58   A 0.83 0.81 75.3 0 1 325.40 199.54   L 319.66 201.35   Z"/>
<path fill="#141a25" d="   M 372.8092 209.0401   A 20.62 20.02 -0.5 0 1 352.3647 229.2392   A 20.62 20.02 -0.5 0 1 331.5708 209.3999   A 20.62 20.02 -0.5 0 1 352.0153 189.2008   A 20.62 20.02 -0.5 0 1 372.8092 209.0401   Z   M 352.9576 196.8331   A 12.41 12.26 -86.5 0 0 339.9629 208.4715   A 12.41 12.26 -86.5 0 0 351.4424 221.6069   A 12.41 12.26 -86.5 0 0 364.4371 209.9685   A 12.41 12.26 -86.5 0 0 352.9576 196.8331   Z"/>
<path fill="#141a25" d="   M 506.5600 209.2040   A 20.60 20.01 -0.1 0 1 485.9949 229.2500   A 20.60 20.01 -0.1 0 1 465.3600 209.2760   A 20.60 20.01 -0.1 0 1 485.9251 189.2300   A 20.60 20.01 -0.1 0 1 506.5600 209.2040   Z   M 498.32 209.23   A 12.34 12.34 0.0 0 0 485.98 196.89   A 12.34 12.34 0.0 0 0 473.64 209.23   A 12.34 12.34 0.0 0 0 485.98 221.57   A 12.34 12.34 0.0 0 0 498.32 209.23   Z"/>
<path fill="#232b3a" d="   M 128.74 189.48   A 0.40 0.39 22.2 0 1 129.03 190.15   L 113.57 205.61   A 1.69 1.68 52.6 0 0 113.30 207.64   Q 122.13 222.96 134.36 238.66   A 0.36 0.36 0.0 0 1 134.08 239.24   L 91.90 239.24   A 0.57 0.57 0.0 0 1 91.33 238.67   L 91.33 190.15   A 0.68 0.67 -0.0 0 1 92.01 189.48   L 128.74 189.48   Z"/>
<path fill="#141a25" d="   M 513.16 190.33   L 519.71 190.33   A 0.81 0.80 -6.2 0 1 520.50 190.96   Q 520.83 192.37 520.42 194.18   A 0.52 0.51 73.6 0 0 521.29 194.66   Q 525.91 189.87 533.10 189.73   A 0.77 0.77 0.0 0 1 533.88 190.50   L 533.88 196.84   A 0.80 0.80 0.0 0 1 532.99 197.64   C 526.94 196.96 521.12 200.37 520.80 207.01   Q 520.57 211.75 520.73 227.35   A 0.76 0.76 0.0 0 1 519.97 228.12   L 513.24 228.12   A 0.74 0.73 -90.0 0 1 512.51 227.38   L 512.51 190.98   A 0.65 0.65 0.0 0 1 513.16 190.33   Z"/>
<path fill="#141a25" d="   M 396.16 190.34   L 402.43 190.34   A 0.96 0.95 90.0 0 1 403.38 191.30   Q 403.36 209.96 403.42 212.49   C 403.76 225.47 422.49 224.28 422.46 211.24   Q 422.44 199.13 422.48 190.92   A 0.60 0.60 0.0 0 1 423.08 190.33   L 430.03 190.33   A 0.62 0.62 0.0 0 1 430.65 190.95   L 430.65 227.28   A 0.85 0.85 0.0 0 1 429.80 228.13   L 423.42 228.13   A 0.65 0.65 0.0 0 1 422.77 227.48   L 422.77 224.89   A 0.55 0.55 0.0 0 0 421.83 224.51   C 417.87 228.63 412.72 229.72 407.21 228.84   Q 400.23 227.72 396.77 220.92   Q 394.95 217.35 395.29 207.35   Q 395.29 207.12 395.33 191.18   A 0.84 0.83 90.0 0 1 396.16 190.34   Z"/>
</svg>